<?xml version="1.0" standalone="no"?>
<!DOCTYPE svg PUBLIC "-//W3C//DTD SVG 20010904//EN"
 "http://www.w3.org/TR/2001/REC-SVG-20010904/DTD/svg10.dtd">
<svg version="1.0" xmlns="http://www.w3.org/2000/svg"
 width="942.000000pt" height="942.000000pt" viewBox="0 0 942.000000 942.000000"
 preserveAspectRatio="xMidYMid meet">
<metadata>
Created by potrace 1.14, written by Peter Selinger 2001-2017
</metadata>
<g transform="translate(0.000000,942.000000) scale(0.100000,-0.100000)"
fill="#000000" stroke="none">
<path d="M2658 9388 c117 -197 242 -463 258 -552 8 -48 32 -90 72 -128 30 -28
40 -47 51 -99 7 -35 20 -77 27 -93 8 -16 11 -33 7 -36 -5 -4 -39 -18 -76 -31
-38 -13 -65 -25 -60 -26 4 -2 45 10 91 25 45 16 82 25 82 20 0 -4 -5 -8 -11
-8 -16 0 -5 -62 21 -114 11 -24 22 -64 24 -89 5 -53 35 -119 77 -168 34 -40
33 -51 -7 -56 -16 -2 -67 -10 -114 -18 -47 -8 -112 -17 -145 -20 -33 -3 -76
-8 -95 -10 -161 -20 -456 -24 -501 -7 -23 9 -25 16 -26 64 0 33 5 59 14 70 11
12 11 18 3 23 -7 4 -15 3 -19 -2 -3 -5 -20 -18 -38 -28 -42 -24 -55 -61 -59
-160 -1 -44 -4 -89 -7 -100 -3 -12 -8 -48 -12 -80 -4 -33 -9 -73 -11 -90 -3
-16 -7 -200 -9 -408 -4 -320 -7 -383 -21 -415 -18 -41 -26 -111 -14 -127 18
-24 27 -98 35 -300 4 -88 8 -180 10 -205 1 -25 6 -99 9 -165 4 -66 9 -138 11
-160 2 -22 7 -76 10 -120 11 -139 24 -283 30 -317 2 -13 6 -50 10 -83 12 -117
37 -290 55 -380 13 -66 19 -93 26 -135 7 -38 11 -57 19 -92 3 -13 8 -36 11
-52 2 -16 7 -32 9 -36 2 -3 6 -18 9 -32 24 -133 180 -645 236 -773 5 -11 32
-76 60 -144 120 -291 292 -594 386 -681 50 -46 40 -23 -42 103 -120 184 -131
201 -169 270 -20 37 -33 67 -28 67 4 0 13 -10 18 -23 18 -37 69 -132 75 -137
3 -3 27 -39 52 -80 130 -210 330 -445 548 -641 301 -272 508 -405 1025 -662
222 -110 337 -158 467 -193 95 -26 145 -52 197 -107 32 -34 35 -35 60 -21 25
15 25 15 4 -1 l-21 -16 93 -139 c52 -76 109 -169 128 -207 31 -60 91 -217 103
-266 7 -28 12 -49 29 -107 36 -125 216 -821 223 -863 l4 -27 194 0 c128 0 194
4 194 10 0 6 -34 145 -76 308 -75 297 -80 317 -88 349 -2 10 -23 95 -45 188
-70 285 -64 258 -84 385 -18 115 -15 267 8 405 9 57 39 171 66 256 27 81 35
97 58 106 27 10 159 151 252 269 62 79 296 405 369 514 166 249 289 506 394
823 42 128 106 379 120 472 4 22 11 65 16 95 38 214 47 700 16 900 -2 14 -7
50 -11 80 -13 112 -17 138 -42 265 -33 171 -31 164 -37 183 -3 9 -8 29 -11 45
-3 15 -7 39 -10 55 -3 15 -9 36 -12 47 -4 11 -8 25 -9 30 -5 26 -67 247 -85
301 -11 33 -21 69 -23 80 -4 17 -105 315 -169 499 -70 201 -285 730 -377 930
-17 39 -45 99 -62 135 -45 97 -217 442 -273 545 -68 127 -195 356 -213 383 -8
12 -11 22 -8 22 4 0 -2 10 -13 21 -11 12 -26 33 -33 48 -63 123 -108 162 -203
176 -48 7 -309 8 -370 1 -16 -2 -66 -7 -110 -10 -44 -4 -91 -9 -105 -11 -14
-2 -50 -7 -80 -10 -30 -4 -62 -9 -70 -10 -21 -4 -121 -18 -145 -21 -11 -1 -74
-12 -140 -24 -66 -11 -132 -23 -146 -25 -126 -22 -415 -84 -621 -135 -91 -22
-170 -40 -176 -40 -17 0 -50 70 -66 137 -7 32 -23 75 -35 97 -12 21 -27 63
-32 93 -6 30 -36 107 -66 171 -31 64 -69 153 -83 197 l-27 80 -372 3 -373 2
20 -32z"/>
<path d="M2855 8404 c-36 -14 -83 -28 -127 -39 -9 -2 -30 -11 -47 -19 -16 -9
-36 -16 -44 -16 -8 0 -22 -9 -32 -19 -14 -16 0 -13 71 15 49 19 123 47 164 61
41 14 77 27 79 29 10 9 -28 2 -64 -12z"/>
</g>
</svg>
